inDegrees=yes
name=ik_S47_A13_T02
DataType=double
version=3
OpenSimVersion=4.3-2021-08-27-4bc7ad9
endheader
time	pelvis_tilt	pelvis_list	pelvis_rotation	pelvis_tx	pelvis_ty	pelvis_tz	hip_flexion_r	hip_adduction_r	hip_rotation_r	knee_angle_r	knee_angle_r_beta	ankle_angle_r	subtalar_angle_r	mtp_angle_r	hip_flexion_l	hip_adduction_l	hip_rotation_l	knee_angle_l	knee_angle_l_beta	ankle_angle_l	subtalar_angle_l	mtp_angle_l	lumbar_extension	lumbar_bending	lumbar_rotation	arm_flex_r	arm_add_r	arm_rot_r	elbow_flex_r	pro_sup_r	wrist_flex_r	wrist_dev_r	arm_flex_l	arm_add_l	arm_rot_l	elbow_flex_l	pro_sup_l	wrist_flex_l	wrist_dev_l
8.939999999999898	-0.154505534035828	0.194247843227745	29.74616478721158	0	0.9399999999999999	0	44.13208868295852	-10.64319933450831	-10.70900625034256	51.5476061656445	0.899675449111826	0	0	0	44.13208868295852	-10.64319933450831	-10.70900625034256	51.5476061656445	0.899675449111826	0	0	0	-0.1026989176420664	1.220111347651959	3.77096616109356	95.88714650388691	16.43249814490314	26.95335409269594	41.95753448226703	54.01414571945377	0	0	100.5610882866157	11.50276029162908	22.76083120440563	34.69434081390286	44.36728495817297	0	0
8.959999999999898	-0.150015773409172	0.2081064604998063	29.25432430633587	0	0.9399999999999999	0	44.15840952485107	-10.599036324931	-10.67207861880467	51.6407377956351	0.9013009026929111	0	0	0	44.15840952485107	-10.599036324931	-10.67207861880467	51.6407377956351	0.9013009026929111	0	0	0	-0.094705557727361	1.205192266771592	4.326396474734028	96.22993328858666	15.64292917884171	27.15232363012206	42.52838280735692	63.03267190375442	0	0	99.85895137072465	11.12514901018091	23.77142345763151	34.6593480198926	44.35966461702981	0	0
8.979999999999897	-0.1678931331353523	0.2507466809835167	29.00647139676737	0	0.9399999999999999	0	44.15902577263642	-10.59752162477435	-10.67098359977349	51.64240121239956	0.9013299347922838	0	0	0	44.15902577263642	-10.59752162477435	-10.67098359977349	51.64240121239956	0.9013299347922838	0	0	0	-0.09154401412499132	1.250690039289206	4.726160166058131	96.73821047391982	14.33943102493011	27.91971438214559	43.01576944690034	67.0973327967954	0	0	98.94711175911638	10.63372906599202	25.02059849779774	34.78253663695134	44.7614217824901	0	0
8.999999999999897	-0.1761374372270861	0.2763875013897017	29.22198394773793	0	0.9399999999999999	0	44.15946034301781	-10.59645733438071	-10.67021352877483	51.64358036460148	0.9013505148805895	0	0	0	44.15946034301781	-10.59645733438071	-10.67021352877483	51.64358036460148	0.9013505148805895	0	0	0	-0.08742814954681137	1.276473873622345	4.614542484470888	97.04141700621824	13.73927724424387	27.86464341033453	42.73735879539072	65.25060160024506	0	0	99.00788394282898	10.66657290537965	24.79984415719193	33.302514254687	47.54431606246037	0	0
9.019999999999897	-0.1759822051282903	0.2862108096808493	29.46180547553736	0	0.9399999999999999	0	44.15994579297751	-10.59525313488098	-10.66934576602101	51.64488031195619	0.9013732032420317	0	0	0	44.15994579297751	-10.59525313488098	-10.66934576602101	51.64488031195619	0.9013732032420317	0	0	0	-0.0815075396451878	1.283834980378522	4.381571341613891	97.03866575087793	13.73646991060542	27.8683461058545	42.7476405298615	65.26470827973404	0	0	98.09428787831709	9.82076873116104	26.00524746870395	32.9167504033337	50.28143385464605	0	0
9.039999999999896	-0.1815728867273089	0.2885467095141531	29.59332591568475	0	0.9399999999999999	0	44.1694987687967	-10.57925228043676	-10.65595982767445	51.67829686348559	0.9019564320908822	0	0	0	44.1694987687967	-10.57925228043676	-10.65595982767445	51.67829686348559	0.9019564320908822	0	0	0	-0.09145120390676829	1.279151813813866	4.249658424825329	98.68288785171615	12.57522024956895	25.730020651852	41.29801834716694	62.86137749242314	0	0	97.35806473360458	8.851547823835586	26.46671798605603	32.31119370440052	53.46640454782732	0	0
9.059999999999896	-0.1773695307098877	0.2955710597724677	29.70173296036139	0	0.9399999999999999	0	44.17017811376736	-10.5776120458771	-10.65476407380855	51.68013088197957	0.9019884417521445	0	0	0	44.17017811376736	-10.5776120458771	-10.65476407380855	51.68013088197957	0.9019884417521445	0	0	0	-0.08730230835548325	1.283066957647054	4.13501383736026	99.92561612709109	11.605347277346	23.59900207662923	40.8195123745811	66.94059969506033	0	0	96.66077311293603	7.742208430971613	26.11374574854789	31.55007907425619	56.98665139550342	0	0
9.079999999999895	-0.1849231290808075	0.3070238837360647	30.26549619532199	0	0.9399999999999999	0	44.18114133549697	-10.55941591949619	-10.63948211171767	51.71847711176039	0.9026577097175462	0	0	0	44.18114133549697	-10.55941591949619	-10.63948211171767	51.71847711176039	0.9026577097175462	0	0	0	-0.08558276199221473	1.288197836635778	3.545951091846024	100.7667900277506	10.93532571718026	21.94008930249482	40.24011231873565	63.48312125026209	0	0	95.09103361024202	5.334955929662681	24.7011797102874	31.93449122697248	61.31141946064391	0	0
9.099999999999895	-0.1881837804112203	0.3170961105010652	30.48392216103716	0	0.9399999999999999	0	44.18167247421913	-10.55815108601364	-10.6385539811423	51.71990819924384	0.9026826869060164	0	0	0	44.18167247421913	-10.55815108601364	-10.6385539811423	51.71990819924384	0.9026826869060164	0	0	0	-0.08376597269353538	1.295204842390336	3.28954544490752	101.3264043676511	10.41780397894853	20.67516164352982	40.15483129694309	63.97106641465778	0	0	94.037854155876	3.916420865406098	24.45719654088139	33.60844112239624	61.35442721473316	0	0
9.119999999999894	-0.2032761842326953	0.330697602057778	30.89086014311146	0	0.9399999999999999	0	44.1908606052092	-10.54342964947681	-10.6260087538009	51.75248870906526	0.9032513240743786	0	0	0	44.1908606052092	-10.54342964947681	-10.6260087538009	51.75248870906526	0.9032513240743786	0	0	0	-0.08444291147377773	1.307688042322386	2.770394000262524	101.5338790411755	10.260861779868	20.39003145791476	40.37449937800559	62.90361607551379	0	0	92.71045056477772	2.200705616866626	24.44085990614547	31.24759174739479	67.87389652207467	0	0
9.139999999999894	-0.2178495154537899	0.3375995421854287	31.12237422236434	0	0.9399999999999999	0	44.19145025144605	-10.54205773263653	-10.62499159254397	51.75408460779465	0.9032791777617348	0	0	0	44.19145025144605	-10.54205773263653	-10.62499159254397	51.75408460779465	0.9032791777617348	0	0	0	-0.09699957641848099	1.316846149953292	2.419123834702338	102.1638903046319	9.589324955704415	19.40580894417081	41.16727883374649	65.92971004060627	0	0	91.08131172805307	0.4016838561810339	24.8031220675904	31.56251983747905	69.61630544122958	0	0
9.159999999999894	-0.2415531486108049	0.3423458456488519	31.21179269147845	0	0.9399999999999999	0	44.19202365236068	-10.54073120224733	-10.62400566842825	51.75564076488997	0.9033063378267263	0	0	0	44.19202365236068	-10.54073120224733	-10.62400566842825	51.75564076488997	0.9033063378267263	0	0	0	-0.114655402234007	1.332475868751559	2.279089265630397	102.5735125674571	8.178384954298265	19.77041162881369	42.2227788909838	65.55736172994199	0	0	89.25285472141159	-1.306030880154554	25.22966389174823	32.14744880591881	70.52201640843768	0	0
9.179999999999893	-0.2930420309284298	0.3333353488211653	31.47922772980627	0	0.9399999999999999	0	44.19242915206188	-10.53978251174913	-10.62330358803365	51.75673253529798	0.903325392815022	0	0	0	44.19242915206188	-10.53978251174913	-10.62330358803365	51.75673253529798	0.903325392815022	0	0	0	-0.163421135507225	1.352443125943896	1.968373395716482	102.7647327001964	8.104394555796761	19.61545191772363	43.10648609730814	64.6133178205033	0	0	87.17416669170038	-3.131905825008253	25.59983767223988	32.91442442759063	71.46359999408534	0	0
